<svg width="55" height="55" viewBox="0 0 55 55" fill="none" xmlns="http://www.w3.org/2000/svg">
<path d="M26.7285 23.0176V20.7812H15.2637V23.0176H19.5898V35H22.3438V23.0176H26.7285Z" fill="white"/>
<path d="M34.6621 31.2891C34.6621 31.543 34.61 31.7773 34.5059 31.9922C34.4017 32.2005 34.252 32.3796 34.0566 32.5293C33.8613 32.679 33.6204 32.7962 33.334 32.8809C33.054 32.9655 32.7318 33.0078 32.3672 33.0078C31.957 33.0078 31.5794 32.9622 31.2344 32.8711C30.8958 32.7799 30.6061 32.6367 30.3652 32.4414C30.1178 32.2461 29.9258 31.9954 29.7891 31.6895C29.6523 31.3835 29.5775 31.0156 29.5645 30.5859H26.8691C26.8691 31.3216 27.0091 31.9629 27.2891 32.5098C27.5755 33.0566 27.9629 33.5319 28.4512 33.9355C28.9655 34.3457 29.5677 34.6582 30.2578 34.873C30.9544 35.0814 31.6576 35.1855 32.3672 35.1855C33.0898 35.1855 33.7572 35.1009 34.3691 34.9316C34.9811 34.7559 35.5085 34.4987 35.9512 34.1602C36.3939 33.8281 36.7389 33.4212 36.9863 32.9395C37.2402 32.4512 37.3672 31.8945 37.3672 31.2695C37.3672 30.5469 37.2012 29.9089 36.8691 29.3555C36.5371 28.8021 36.0911 28.3171 35.5312 27.9004C35.1602 27.6465 34.7533 27.4219 34.3105 27.2266C33.8678 27.0312 33.4023 26.8652 32.9141 26.7285C32.4583 26.6048 32.0482 26.4714 31.6836 26.3281C31.3255 26.1849 31.0195 26.0254 30.7656 25.8496C30.5117 25.6803 30.3164 25.4883 30.1797 25.2734C30.0495 25.0586 29.9844 24.8177 29.9844 24.5508C29.9844 24.2969 30.0332 24.0625 30.1309 23.8477C30.235 23.6263 30.3848 23.4342 30.5801 23.2715C30.7754 23.1152 31.013 22.9948 31.293 22.9102C31.5794 22.819 31.9049 22.7734 32.2695 22.7734C32.6667 22.7734 33.0117 22.8288 33.3047 22.9395C33.6042 23.0436 33.8548 23.1901 34.0566 23.3789C34.252 23.5742 34.3984 23.8053 34.4961 24.0723C34.6003 24.3392 34.6589 24.6322 34.6719 24.9512H37.3477C37.3477 24.3132 37.224 23.7272 36.9766 23.1934C36.7292 22.6595 36.3841 22.1973 35.9414 21.8066C35.4987 21.4225 34.9681 21.123 34.3496 20.9082C33.7376 20.6934 33.0605 20.5859 32.3184 20.5859C31.6022 20.5859 30.9382 20.6803 30.3262 20.8691C29.7142 21.0514 29.1836 21.3151 28.7344 21.6602C28.2852 22.0052 27.9336 22.4219 27.6797 22.9102C27.4258 23.3984 27.2988 23.9421 27.2988 24.541C27.2988 25.0618 27.3932 25.5436 27.582 25.9863C27.7773 26.429 28.0638 26.8327 28.4414 27.1973C28.819 27.5618 29.304 27.8971 29.8965 28.2031C30.4954 28.5091 31.1888 28.7695 31.9766 28.9844C32.4844 29.1211 32.9076 29.2708 33.2461 29.4336C33.5911 29.5898 33.8711 29.7624 34.0859 29.9512C34.2943 30.1465 34.4408 30.3548 34.5254 30.5762C34.6165 30.7975 34.6621 31.0352 34.6621 31.2891Z" fill="white"/>
<rect x="27.4453" y="0.707107" width="37.8137" height="37.8137" transform="rotate(45 27.4453 0.707107)" stroke="white"/>
</svg>
